# File created by Blade
# Date/Time:  Fri Jan 16 19:18:57 2015
# Frame Rate: 120.000 fps
#------------------------------------------------------
:FULLY-SPECIFIED
:DEGREES
1072
root 19.829508 35.616628 -21.453805 -168.941633 -0.705785 -179.270929
Spine -20.359513 -0.080548 0.528742
Head 8.509363 -1.739900 1.495878
LeftShoulder -13.754707 -30.111127 19.302384
LeftArm -2.207644 -0.199439 -9.440228
LeftForeArm 14.004827 -0.000000 -1.131501
LeftHand -3.762377 -0.000000 -0.648175
LeftHandThumb1 -26.253704 0.000000 33.147579
RightShoulder -12.097394 -4.368179 -7.921360
RightArm 1.608724 42.026555 14.962331
RightForeArm -36.412556 0.000000 7.729261
RightHand -5.585912 0.000000 -0.269742
RightHandThumb1 -24.326973 -0.000000 -32.862282
LeftUpLeg -3.525277 9.614010 -0.784021
LeftLeg -6.624483 -0.000000 0.000000
LeftFoot -19.035439 26.196922 -12.644043
LeftToeBase 26.222420 -0.000000 -0.000000
RightUpLeg -4.187011 -5.924312 0.534057
RightLeg -3.368938 -0.000000 0.000000
RightFoot -20.132145 -25.340223 14.642999
RightToeBase 23.812580 -0.000000 -0.000000
1073
root 19.830756 35.616945 -21.452636 -168.909921 -0.705947 -179.267485
Spine -20.378453 -0.054754 0.513064
Head 8.488850 -1.744478 1.505459
LeftShoulder -13.748837 -30.146335 19.304945
LeftArm -2.176281 -0.159119 -9.441128
LeftForeArm 14.079207 0.000000 -1.131354
LeftHand -3.772971 -0.000000 -0.674977
LeftHandThumb1 -26.253704 0.000000 33.147579
RightShoulder -12.160193 -4.483314 -7.862597
RightArm 1.825663 42.246163 15.012580
RightForeArm -36.515258 -0.000000 7.641254
RightHand -5.671961 -0.000000 -0.334562
RightHandThumb1 -24.326973 -0.000000 -32.862282
LeftUpLeg -3.554273 9.598084 -0.774767
LeftLeg -6.618607 -0.000000 0.000000
LeftFoot -19.029907 26.147274 -12.643878
LeftToeBase 26.202140 -0.000000 -0.000000
RightUpLeg -4.217343 -5.906077 0.539014
RightLeg -3.367206 -0.000000 0.000000
RightFoot -20.084991 -25.419615 14.547032
RightToeBase 23.768686 -0.000000 -0.000000
1074
root 19.830932 35.616554 -21.451635 -168.879989 -0.712317 -179.270978
Spine -20.400992 -0.044174 0.495817
Head 8.482583 -1.732669 1.509383
LeftShoulder -13.752314 -30.121558 19.298171
LeftArm -2.097965 -0.243977 -9.447305
LeftForeArm 14.230148 -0.000000 -1.194521
LeftHand -3.774787 -0.000000 -0.710760
LeftHandThumb1 -26.253704 0.000000 33.147579
RightShoulder -12.139274 -4.444776 -7.877509
RightArm 1.812735 42.215171 14.970289
RightForeArm -36.456328 0.000000 7.614862
RightHand -5.603214 -0.000000 -0.179822
RightHandThumb1 -24.326973 -0.000000 -32.862282
LeftUpLeg -3.580968 9.605193 -0.791200
LeftLeg -6.646838 -0.000000 0.000000
LeftFoot -19.023320 26.191475 -12.641946
LeftToeBase 26.244660 -0.000000 -0.000000
RightUpLeg -4.247963 -5.929412 0.545664
RightLeg -3.378058 -0.000000 0.000000
RightFoot -20.133199 -25.360472 14.622802
RightToeBase 23.840194 -0.000000 -0.000000
1075
root 19.830927 35.616342 -21.450337 -168.850141 -0.714085 -179.279421
Spine -20.412696 -0.017729 0.464811
Head 8.442089 -1.751085 1.521564
LeftShoulder -13.761647 -30.113915 19.294008
LeftArm -1.986462 -0.249442 -9.456402
LeftForeArm 14.316035 0.000000 -1.317256
LeftHand -3.699941 -0.000000 -0.730138
LeftHandThumb1 -26.253704 0.000000 33.147579
RightShoulder -12.152265 -4.421863 -7.888123
RightArm 1.828293 42.134702 14.954643
RightForeArm -36.406970 -0.000000 7.576889
RightHand -5.528896 -0.000000 -0.273891
RightHandThumb1 -24.326973 -0.000000 -32.862282
LeftUpLeg -3.608486 9.602570 -0.805892
LeftLeg -6.658204 -0.000000 0.000000
LeftFoot -19.020072 26.201445 -12.649141
LeftToeBase 26.242081 -0.000000 -0.000000
RightUpLeg -4.273996 -5.940219 0.543650
RightLeg -3.391446 -0.000000 0.000000
RightFoot -20.128330 -25.366253 14.623878
RightToeBase 23.838578 -0.000000 -0.000000
1076
root 19.831673 35.616576 -21.449065 -168.833570 -0.713956 -179.280918
Spine -20.403856 0.009239 0.439734
Head 8.390537 -1.783670 1.558618
LeftShoulder -13.785207 -30.115164 19.282159
LeftArm -1.864305 -0.155213 -9.468304
LeftForeArm 14.284125 -0.000000 -1.408996
LeftHand -3.718625 0.000000 -0.674242
LeftHandThumb1 -26.253704 0.000000 33.147579
RightShoulder -12.157665 -4.389091 -7.874529
RightArm 1.841677 42.176976 14.906087
RightForeArm -36.385412 -0.000000 7.522052
RightHand -5.454402 0.000000 -0.236173
RightHandThumb1 -24.326973 -0.000000 -32.862282
LeftUpLeg -3.618892 9.598653 -0.801358
LeftLeg -6.659099 -0.000000 0.000000
LeftFoot -19.011375 26.145672 -12.667027
LeftToeBase 26.205182 -0.000000 -0.000000
RightUpLeg -4.287056 -5.941672 0.545202
RightLeg -3.406358 -0.000000 0.000000
RightFoot -20.115374 -25.382076 14.673596
RightToeBase 23.684732 -0.000000 -0.000000
1077
root 19.833617 35.616995 -21.447989 -168.799704 -0.704860 -179.267620
Spine -20.435987 0.032922 0.436766
Head 8.393862 -1.784462 1.564486
LeftShoulder -13.789852 -30.091827 19.279232
LeftArm -1.810892 -0.120634 -9.475001
LeftForeArm 14.347792 -0.000000 -1.441277
LeftHand -3.722068 -0.000000 -0.691675
LeftHandThumb1 -26.253704 0.000000 33.147579
RightShoulder -12.120511 -4.316632 -7.900223
RightArm 1.797732 42.089177 14.860883
RightForeArm -36.346327 -0.000000 7.509227
RightHand -5.495985 -0.000000 -0.242009
RightHandThumb1 -24.326973 -0.000000 -32.862282
LeftUpLeg -3.657554 9.657298 -0.804636
LeftLeg -6.668974 -0.000000 0.000000
LeftFoot -18.999435 26.149343 -12.642144
LeftToeBase 26.252269 -0.000000 -0.000000
RightUpLeg -4.319801 -5.909171 0.559749
RightLeg -3.409937 -0.000000 0.000000
RightFoot -20.107012 -25.364676 14.635121
RightToeBase 23.833075 -0.000000 -0.000000
1078
root 19.835264 35.617230 -21.444567 -168.742685 -0.718804 -179.276700
Spine -20.479804 0.054398 0.391876
Head 8.369996 -1.777562 1.605465
LeftShoulder -13.796217 -30.115952 19.307444
LeftArm -1.752995 -0.055856 -9.499682
LeftForeArm 14.377396 -0.000000 -1.463289
LeftHand -3.733936 -0.000000 -0.763228
LeftHandThumb1 -26.253704 0.000000 33.147579
RightShoulder -12.150076 -4.303950 -7.886762
RightArm 1.825469 42.062750 14.848612
RightForeArm -36.306286 0.000000 7.482161
RightHand -5.485887 0.000000 -0.194792
RightHandThumb1 -24.326973 -0.000000 -32.862282
LeftUpLeg -3.720217 9.637341 -0.813222
LeftLeg -6.662241 -0.000000 0.000000
LeftFoot -18.982953 26.111125 -12.642467
LeftToeBase 26.233327 -0.000000 -0.000000
RightUpLeg -4.377443 -5.919708 0.561093
RightLeg -3.415689 -0.000000 0.000000
RightFoot -20.112873 -25.370164 14.634076
RightToeBase 23.854989 -0.000000 -0.000000
1079
root 19.835678 35.617671 -21.441531 -168.693503 -0.717399 -179.270984
Spine -20.520673 0.078008 0.384994
Head 8.355500 -1.783922 1.600005
LeftShoulder -13.803739 -30.111696 19.298992
LeftArm -1.700568 -0.026674 -9.499239
LeftForeArm 14.427992 -0.000000 -1.490375
LeftHand -3.717700 -0.000000 -0.763793
LeftHandThumb1 -26.253704 0.000000 33.147579
RightShoulder -12.148129 -4.252334 -7.901252
RightArm 1.839161 42.095927 14.826583
RightForeArm -36.380503 -0.000000 7.432076
RightHand -5.524530 -0.000000 -0.139183
RightHandThumb1 -24.326973 -0.000000 -32.862282
LeftUpLeg -3.770144 9.634162 -0.822278
LeftLeg -6.684456 -0.000000 0.000000
LeftFoot -18.980193 26.161991 -12.649740
LeftToeBase 26.274099 -0.000000 -0.000000
RightUpLeg -4.429754 -5.923626 0.573200
RightLeg -3.421215 -0.000000 0.000000
RightFoot -20.090555 -25.368664 14.607923
RightToeBase 23.883332 -0.000000 -0.000000
1080
root 19.836902 35.617077 -21.440991 -168.657076 -0.714204 -179.268219
Spine -20.553548 0.107908 0.367865
Head 8.349818 -1.788167 1.590503
LeftShoulder -13.853725 -30.153944 19.315580
LeftArm -1.601313 0.042945 -9.506611
LeftForeArm 14.465055 0.000000 -1.522869
LeftHand -3.711523 -0.000000 -0.798078
LeftHandThumb1 -26.253704 0.000000 33.147579
RightShoulder -12.154146 -4.235030 -7.912618
RightArm 1.854806 42.096884 14.819205
RightForeArm -36.414887 -0.000000 7.375027
RightHand -5.507826 -0.000000 -0.164278
RightHandThumb1 -24.326973 -0.000000 -32.862282
LeftUpLeg -3.798147 9.644932 -0.820240
LeftLeg -6.692481 -0.000000 0.000000
LeftFoot -18.968120 26.111443 -12.633609
LeftToeBase 26.265883 -0.000000 -0.000000
RightUpLeg -4.460952 -5.920996 0.580352
RightLeg -3.432892 -0.000000 0.000000
RightFoot -20.096883 -25.394777 14.626058
RightToeBase 23.764859 -0.000000 -0.000000
1081
root 19.838267 35.617326 -21.438341 -168.604935 -0.705487 -179.261284
Spine -20.603599 0.129653 0.357783
Head 8.347834 -1.795800 1.594201
LeftShoulder -13.864513 -30.181755 19.324099
LeftArm -1.580302 0.096445 -9.496283
LeftForeArm 14.478677 0.000000 -1.521571
LeftHand -3.715394 -0.000000 -0.860283
LeftHandThumb1 -26.253704 0.000000 33.147579
RightShoulder -12.153821 -4.237260 -7.916361
RightArm 1.887739 42.140796 14.829421
RightForeArm -36.424522 -0.000000 7.371626
RightHand -5.575476 0.000000 -0.102779
RightHandThumb1 -24.326973 -0.000000 -32.862282
LeftUpLeg -3.851733 9.656197 -0.821339
LeftLeg -6.695630 -0.000000 0.000000
LeftFoot -18.965466 26.103959 -12.630426
LeftToeBase 26.253407 -0.000000 -0.000000
RightUpLeg -4.518020 -5.908784 0.592970
RightLeg -3.436472 -0.000000 0.000000
RightFoot -20.076968 -25.392143 14.660829
RightToeBase 23.677398 -0.000000 -0.000000
